<?xml version="1.0" encoding="utf-8"?>
<!-- Generator: Adobe Illustrator 21.1.0, SVG Export Plug-In . SVG Version: 6.00 Build 0)  -->
<svg version="1.1" id="Layer_1" xmlns="http://www.w3.org/2000/svg" xmlns:xlink="http://www.w3.org/1999/xlink" x="0px" y="0px"
	 viewBox="0 0 810 20" style="enable-background:new 0 0 810 20;" xml:space="preserve">
<style type="text/css">
	.st0{fill:#FFFFFF;}
	.st1{fill:none;stroke:#F1B601;stroke-miterlimit:10;}
	.st2{fill:none;stroke:#F1B601;stroke-miterlimit:10;stroke-dasharray:3.0004,3.0004;}
</style>
<g>
	<path class="st0" d="M9.5,13.5c0,0,14.7,0,52.7-3.5s74,0,96.5,1.7s57,0.8,103.5-3.2s73,7,137.5,2.5s141-0.5,160,2.5
		c0,0,38-7,116-3.5s124.7-3.5,124.7-3.5"/>
	<g>
		<path class="st1" d="M9.5,13.5c0,0,0.5,0,1.5,0"/>
		<path class="st2" d="M14,13.4c6.9-0.2,22-1,48.2-3.4c38-3.5,74,0,96.5,1.7s57,0.8,103.5-3.2s73,7,137.5,2.5s141-0.5,160,2.5
			c0,0,38-7,116-3.5c66.5,3,110.3-1.7,121.7-3.1"/>
		<path class="st1" d="M799,6.7c1-0.1,1.5-0.2,1.5-0.2"/>
	</g>
</g>
</svg>
