<svg xmlns="http://www.w3.org/2000/svg" viewBox="0 0 455.8 181.9"><path class="st0" d="M29.1 154.1s42.7-48.3 93-26c9.7 5 71 50.7 94.7 50.7-8.3 4-46 2.7-107.3-34.7-10.2-5-31.2-11.3-80.4 10z"/><path class="st1" d="M.6 159.1s41.3-71.6 92.7-68.7C89.6 80.6 62.6.8 62.6.8h45.7L129.6 80l18-79.2h41.1l-34 104.3s59.3 35.6 87.7 47.4c8.3 3.2 58 19.6 101.3-31.1-1.7 6.2-17 53.7-71.7 58.9-24 .3-48.7-.3-80.3-21.9-22-14.4-67.3-45.4-96.7-41.5-10.3.7-38.7-4.9-94.3 43.5"/><path class="st1" d="M232 112.1c-.9-1.6-1.7-4-2.3-7.1-4.5 5.7-10.9 8.6-19 8.6-7.5 0-13.8-2.3-19-6.8s-7.8-10.2-7.8-17c0-8.6 3.2-15.1 9.5-19.5s15.6-6.6 27.7-6.6h7.6v-4.2c0-7.3-3.1-11-9.4-11-5.9 0-8.8 2.9-8.8 8.7h-24.7c0-7.7 3.3-13.9 9.8-18.7s14.8-7.2 24.9-7.2 18.1 2.5 24 7.4c5.9 4.9 8.9 11.7 9 20.3v35.1c.1 7.3 1.2 12.8 3.4 16.7v1.2l-24.9.1zM216.5 96c3.1 0 5.6-.7 7.7-2s3.5-2.8 4.4-4.5V76.9h-7.2c-8.6 0-12.9 3.9-12.9 11.6 0 2.2.8 4.1 2.3 5.5 1.4 1.3 3.4 2 5.7 2z"/><path d="M298 55.7l11.5-21.8h25.6l-20.9 38.6 21.9 40.6h-25.8l-12.5-23.4-12.1 23.4h-26l22-40.6L261 33.9h25.9L298 55.7zm45-42.2c0-3.5 1.3-6.4 3.8-8.6s5.8-3.4 9.9-3.4 7.3 1.1 9.9 3.4c2.5 2.2 3.8 5.1 3.8 8.6s-1.3 6.4-3.8 8.6-5.8 3.4-9.9 3.4-7.3-1.1-9.9-3.4c-2.7-2.2-3.8-5.1-3.8-8.6zm26.2 99.6h-24.8V33.9h24.8v79.2zM407 33.9l.8 9.3c5.5-7.2 13-10.8 22.6-10.8 8.3 0 14.4 2.5 18.5 7.4s6.2 12.4 6.3 22.3v51h-24.8v-50c0-4-.8-6.9-2.4-8.8s-4.5-2.8-8.8-2.8c-4.8 0-8.4 1.9-10.8 5.7v56h-24.7V33.9H407z"/></svg>