<svg xmlns="http://www.w3.org/2000/svg" viewBox="0 0 193 26"><path d="M95.3 7.4c3.1 0 5.6 2.5 5.6 5.6s-2.5 5.6-5.6 5.6-5.6-2.5-5.6-5.6 2.5-5.6 5.6-5.6m0-.5c-3.3 0-6.1 2.7-6.1 6.1s2.7 6.1 6.1 6.1 6.1-2.7 6.1-6.1-2.8-6.1-6.1-6.1z"/><path d="M87.5 7.4c3.1 0 5.6 2.5 5.6 5.6s-2.5 5.6-5.6 5.6-5.6-2.5-5.6-5.6 2.5-5.6 5.6-5.6m0-.5c-3.3 0-6.1 2.7-6.1 6.1s2.7 6.1 6.1 6.1c3.3 0 6.1-2.7 6.1-6.1s-2.8-6.1-6.1-6.1zm15.5.5c3.1 0 5.6 2.5 5.6 5.6s-2.5 5.6-5.6 5.6-5.6-2.5-5.6-5.6 2.5-5.6 5.6-5.6m0-.5c-3.3 0-6.1 2.7-6.1 6.1s2.8 6 6.1 6 6.1-2.7 6.1-6.1-2.7-6-6.1-6z"/><path d="M109 12.6h84v.5h-84zm-109 0h82v.5H0z"/></svg>